# xmcd CD database file
#
# Track frame offsets:
#	150
#	13084
#	37515
#	53230
#	66892
#	81025
#	94652
#	106372
#	120120
#	135237
#	150815
#	165082
#	180390
#	192627
#	206577
#	222965
#	234247
#	248120
#	263285
#	277960
#	291457
#	304817
#	316217
#	328190
#	342040
#
# Disc length: 4743 seconds
#
# Revision: 2
# Processed by: cddbd v1.5.2PL0 Copyright (c) Steve Scherf et al.
# Submitted via: CDex 1.70beta2
#
DISCID=40128519
DTITLE=Various Artist - The Blues: A Musical Journey [CD1]
DYEAR=2003
DGENRE=Blues
TTITLE0=Othar Turner and The Rising Star Fife and Drum Band - Shortin'/Hunduck
TTITLE1=Lightning and Group - Long John
TTITLE2=Mamie Smith - Crazy Blues
TTITLE3=W.C. Handy - St. Louis Blues
TTITLE4=Bessie Smith - Muddy Water
TTITLE5=Blind Lemon Jefferson - Match Box Blues
TTITLE6=Furry Lewis - Billy Lyons and Stack-o-lee
TTITLE7="Ma" Rainey - "Ma" Rainey's Black Bottom
TTITLE8=Blind Willie Johnson - Dark Was The Night, Cold Was The Ground
TTITLE9=Louis Armstrong - Savoy Blues
TTITLE10=Frank Stokes - Downtown Blues
TTITLE11=Mississippi John Hurt - Frankie
TTITLE12=Henry Thomas - Fishing Blues
TTITLE13=Leroy Carr - How Long How Long Blues
TTITLE14=Tommy Johnson - Canned Heat Blues
TTITLE15=Blind Willie McTell - Statesboro Blues
TTITLE16=Tampa Red and Georgia Tom - It's Tight Like That
TTITLE17=Pine Top Smith - Pine Top's Boogie Woogie
TTITLE18=Lonnie Johnson - Guitar Blues
TTITLE19=Charlie Patton - Pony Blues
TTITLE20=Blind Blake - Diddie Wah Diddie
TTITLE21=Memphis Jug Band - K.C. Moan
TTITLE22=Jimmie Rodgers - Standin' On The Corner (Blue Yodel #9)
TTITLE23=Mississippi Sheiks - Sittin' On Top Of The World
TTITLE24=Son House - Preachin' The Blues
EXTD=YEAR: 2003
EXTT0=
EXTT1=
EXTT2=
EXTT3=
EXTT4=
EXTT5=
EXTT6=
EXTT7=
EXTT8=
EXTT9=
EXTT10=
EXTT11=
EXTT12=
EXTT13=
EXTT14=
EXTT15=
EXTT16=
EXTT17=
EXTT18=
EXTT19=
EXTT20=
EXTT21=
EXTT22=
EXTT23=
EXTT24=
PLAYORDER=
